<?xml version="1.0" standalone="no"?>
<!DOCTYPE svg PUBLIC "-//W3C//DTD SVG 1.1//EN" "http://www.w3.org/Graphics/SVG/1.1/DTD/svg11.dtd" >
<svg xmlns="http://www.w3.org/2000/svg" version="1.1">
<metadata>
Created by FontForge 20201107 at Sun Nov 20 23:54:33 2016
 By Unknown
Shara Weber 2016
</metadata>
<defs>
<font id="VanillaExtractRegular" horiz-adv-x="746" >
  <font-face 
    font-family="Vanilla Extract"
    font-weight="500"
    font-stretch="normal"
    units-per-em="1024"
    panose-1="0 0 0 0 0 0 0 0 0 0"
    ascent="819"
    descent="-205"
    x-height="642"
    cap-height="868"
    bbox="-42 -284 1210 1152"
    underline-thickness="51"
    underline-position="-152"
    unicode-range="U+000D-00A0"
  />
<missing-glyph horiz-adv-x="665" 
 />
    <glyph glyph-name=".notdef" horiz-adv-x="665" 
 />
    <glyph glyph-name=".null" horiz-adv-x="0" 
 />
    <glyph glyph-name="nonmarkingreturn" horiz-adv-x="341" 
 />
    <glyph glyph-name="controlCR" unicode="&#xd;" horiz-adv-x="450" 
 />
    <glyph glyph-name="space" unicode=" " horiz-adv-x="450" 
 />
    <glyph glyph-name="exclam" unicode="!" horiz-adv-x="280" 
d="M109 0q-45 1 -77 33t-32 79q0 52 33.5 80t79.5 28t80.5 -29t34.5 -81q0 -44 -35.5 -77t-81.5 -33h-2zM117 295h-4q-40 0 -54 17t-16 50q-12 234 -30 405q-4 36 -4 54q0 44 25 58q33 15 82 15q58 0 84 -18q19 -3 19 -53q0 -23 -2 -37q-18 -284 -32 -424q-4 -41 -15.5 -54
t-52.5 -13z" />
    <glyph glyph-name="quotedbl" unicode="&#x22;" horiz-adv-x="471"
d="M334 925q53 0 69 -16.5t16 -64.5v-9q-2 -40 -5 -103q-6 -122 -15.5 -142.5t-62.5 -22.5h-1h-16q-48 0 -58.5 34.5t-10.5 174.5v65q0 54 18 69t66 15zM100 925q53 0 69 -16.5t16 -64.5v-9q-2 -40 -5 -103q-6 -120 -15 -141q-9 -20 -41 -23q-7 0 -23 -1h-1h-14
q-49 0 -59.5 35t-10.5 173v66q0 54 18 69t66 15z" />
    <glyph glyph-name="numbersign" unicode="#" horiz-adv-x="976" 
d="M131 371q9 0 27 -2t28 -2q54 0 62 57q2 13 13.5 49t11.5 54q0 29 -23 45q-14 10 -43.5 10.5t-48.5 7t-19 32.5q0 13 2 21q4 21 8 32.5t17 24t34 12.5q8 0 24 0.5t23 0.5q22 0 32 -1q1 0 5 -0.5t5 -0.5q13 0 21 3.5t13.5 15.5t7 16t5.5 22q2 7 6 28t7 32t9.5 25.5
t14.5 23.5q15 16 55 16q21 0 40 -7q15 -6 15 -74v-11q0 -12 -9.5 -37t-9.5 -38q0 -15 47 -15q49 0 61 6q27 13 36.5 31t13.5 55q3 25 17 50.5t33 37.5q6 5 20 5q24 0 67 -16q10 -4 10 -39q0 -11 -1 -15q-9 -74 -9 -78q0 -14 6 -18t16 -3.5t33.5 -4.5t49.5 -17q25 -12 25 -36
t-20.5 -52.5t-38.5 -41.5q-5 -4 -17 -4q-5 0 -20 1t-24 1q-20 6 -27 6q-45 0 -57 -82q-3 -22 -15 -60.5t-15 -51.5q-1 -3 3.5 -9t7.5 -6h11q7 0 22 0.5t22 0.5q22 0 38 -4q12 -3 26 -16t14 -23q0 -46 -20.5 -70.5t-50.5 -32t-60.5 -15t-54 -32.5t-27.5 -72q-7 -80 -79 -80
q-24 0 -56 8q-14 3 -14 28q0 16 5.5 39.5t11.5 42.5t12.5 38t7.5 21q1 3 -4 9t-8 6q-7 0 -20.5 1t-24.5 1.5t-21 0.5q-25 0 -46 -6q-22 -6 -41 -86t-29 -91q-16 -18 -55 -18q-23 0 -39 8q-15 7 -15 69v18q0 14 11 41.5t11 42.5q0 20 -46 20h-26q-31 6 -55 31t-24 52
q0 35 43 59q17 10 46 10zM495 573q-3 1 -6 1q-16 0 -39.5 -4.5t-26.5 -12.5q-46 -107 -46 -160q0 -6 8 -15.5t15 -10.5q28 -4 44 -4q59 0 75 36q2 5 12 29.5t14 35t8.5 28t4.5 29.5q0 48 -63 48z" />
    <glyph glyph-name="dollar" unicode="$" horiz-adv-x="690" 
d="M583 696q0 -28 -24 -44t-55 -16q-24 0 -38 17q-2 2 -12 21t-20.5 32.5t-21.5 13.5q-14 0 -25.5 -6.5t-11.5 -18.5q-1 -27 -1 -86v-60q0 -12 8 -20.5t14.5 -12t22.5 -9t20 -6.5q178 -73 178 -225q0 -83 -41 -138t-115 -78q-48 -16 -59 -23q-9 -6 -11 -18q-7 -70 -15 -83
q-12 -17 -48 -17q-14 0 -24 3.5t-15 7t-8 14.5t-3.5 15.5t-1 21.5t-0.5 21q-1 25 -11 32.5t-34.5 8t-39.5 5.5q-64 23 -117 66.5t-66 99.5q-2 8 -2 12q0 39 50 58q29 12 48 12q4 0 7.5 -0.5t7.5 -2t6.5 -2.5t6.5 -4.5t6.5 -5t7.5 -6.5t7.5 -7t8.5 -8.5t9 -9.5l2 -2
q33 -41 71 -53q3 -1 8 -1q9 0 15.5 6t6.5 16q1 40 1 150q0 13 -12 20q-13 7 -39.5 19t-50 25t-46.5 29q-94 68 -94 177q0 157 163 218q7 3 15 5t18.5 4t15.5 3q17 3 17 22q1 31 1.5 41.5t3.5 27.5t9.5 21.5t18 9t29.5 4.5q35 0 46 -13t11 -53q0 -4 -0.5 -13.5t-0.5 -14.5
q0 -19 17 -22q51 -12 104.5 -54t73.5 -93q8 -21 8 -33zM376 216q0 -7 6 -10.5t12 -0.5q26 13 39.5 28.5t13.5 47.5q0 36 -38 52q-3 1 -10 1q-9 0 -15.5 -6t-6.5 -16q-2 -38 -2 -66q0 -6 0.5 -16t0.5 -14zM257 720q-25 -2 -38.5 -20t-13.5 -44q0 -41 26 -68h1q6 -6 16 -6
q21 0 23 21q2 32 2 55q0 62 -15 62h-1z" />
    <glyph glyph-name="percent" unicode="%" horiz-adv-x="1142" 
d="M1 671q0 98 69.5 161.5t170.5 63.5q92 0 160 -56.5t76 -150.5q0 -2 0.5 -8t0.5 -10v-14q-5 -90 -72 -151.5t-162 -61.5q-100 0 -171.5 64.5t-71.5 162.5zM340 669q0 41 -29 71.5t-67 30.5q-48 0 -74.5 -30.5t-26.5 -71.5q0 -40 25.5 -69.5t72.5 -29.5q40 0 69.5 29.5
t29.5 69.5zM762 242q0 -47 25.5 -74t68.5 -27h3q92 0 92 101q0 41 -30.5 66t-69.5 25q-37 0 -63 -23.5t-26 -67.5zM1090 239v-9q0 -99 -64.5 -162.5t-166.5 -63.5q-4 0 -10.5 0.5t-9.5 0.5q-81 5 -149 69.5t-68 159.5v6q2 97 72.5 164t163.5 67h2q91 -1 160.5 -62t69.5 -170
zM263 46q0 21 16 47q161 297 421 762q33 58 61 58q14 0 37 -13q28 -13 28 -40q0 -16 -11 -34q-304 -561 -424 -770l-5 -10q-5 -9 -7 -12.5t-8 -12t-11 -12t-13.5 -7t-17.5 -3.5q-16 0 -29 6q-37 9 -37 41z" />
    <glyph glyph-name="ampersand" unicode="&#x26;" horiz-adv-x="988" 
d="M184 499q2 1 6 2.5t6 2.5l5 2.5t4.5 3t2.5 3.5t1 4q0 10 -12 22q-63 65 -63 151q0 54 27.5 100t79.5 72q66 34 142 34q123 0 195 -92q37 -46 37 -108q0 -71 -50 -121q-15 -15 -32.5 -29.5t-40 -32t-34.5 -27.5q-2 -2 -2 -7.5t2 -7.5q33 -37 97 -105q3 -3 12 -2.5t12 3.5
q33 36 44 57q24 36 46 49t53 13q10 0 40 -2q21 -2 35 -16t14 -29q0 -9 -6 -17q-44 -57 -134 -169q-8 -10 -5 -16q16 -37 48.5 -58t70.5 -21q9 0 25 2q4 0 8 2q31 11 50 11q22 0 35 -16t24 -52q1 -3 1 -10q0 -23 -24 -45.5t-58 -32.5q-42 -12 -80 -12q-100 0 -180 85
q-3 3 -12 3t-13 -3q-100 -86 -235 -86q-34 0 -61 4q-39 5 -83 24t-85 49.5t-68 76.5t-27 99q0 76 56.5 142.5t125.5 99.5zM333 143q38 0 83 23t45 44q0 19 -37 53q-10 10 -28 31.5t-25 29.5q-10 11 -20 23t-15.5 18.5t-11.5 12.5t-10.5 8.5t-9.5 2.5q-12 0 -76 -43l-1 -1
q-46 -33 -46 -87q0 -44 29 -68q41 -47 123 -47zM339 735q-39 -24 -39 -72q0 -35 25 -71q6 -8 18 -18.5t16 -10.5q3 2 14.5 10t15.5 11t13.5 10t15 12t11.5 12t11 14q13 20 13 38q0 30 -24.5 51.5t-62.5 21.5q-1 0 -5.5 -1t-11 -2.5t-10.5 -4.5z" />
    <glyph glyph-name="quotesingle" unicode="'" horiz-adv-x="237" 
d="M100 910q53 0 69 -17t16 -65v-8q-2 -40 -5 -102q-6 -122 -15.5 -142.5t-62.5 -22.5h-2h-14q-49 0 -59.5 35t-10.5 173v64q0 54 18.5 69.5t65.5 15.5z" />
    <glyph glyph-name="parenleft" unicode="(" horiz-adv-x="397" 
d="M5 346v22q0 73 20 158.5t47.5 155t58 131t51 95.5t25.5 40q21 21 40 21q12 0 23.5 -6t26 -17.5t21.5 -15.5q17 -11 17 -28q0 -18 -14 -44q-56 -113 -108 -241q-22 -57 -22 -201q0 -101 10 -202t22 -135q13 -37 28 -69t36 -72t34 -67q7 -14 7 -29q0 -9 -2.5 -17t-6 -14
t-8.5 -12t-8.5 -9t-6.5 -6l-4 -3q-29 -13 -40 -13q-14 0 -37 16q-16 19 -47 69t-69.5 126.5t-66 176.5t-27.5 190z" />
    <glyph glyph-name="parenright" unicode=")" horiz-adv-x="444" 
d="M390 336q-16 -240 -112 -405q-47 -80 -93 -145q-18 -25 -42 -25q-18 0 -58 21q-24 14 -24 51q0 44 29 120.5t62 149t38 93.5q23 99 23 189q0 59 -10 109q-24 116 -129 346q-15 32 -15 57q0 30 17.5 48t51.5 19h1q21 0 46.5 -21.5t40.5 -46.5q91 -152 125 -250
q14 -40 24 -85t17.5 -93.5t10.5 -60.5q-3 -68 -3 -71z" />
    <glyph glyph-name="asterisk" unicode="*" horiz-adv-x="562" 
d="M202 790q0 22 -4.5 46.5t-4.5 37.5q0 22 13 28.5t52 6.5q35 0 49 -7t14 -28q0 -7 -5 -30t-5 -34q0 -7 1 -21.5t1 -21.5q17 1 55.5 14.5t55.5 13.5h2q12 -1 26 -9.5t22 -19.5q21 -31 21 -50q0 -34 -60 -44q-1 0 -11 -1.5t-19 -3.5t-19.5 -5t-17 -8.5t-6.5 -11.5q0 -3 4 -9
q6 -9 22 -28t26.5 -35.5t10.5 -31.5q0 -22 -49 -61q-8 -7 -19 -7q-16 0 -33 17.5t-33 43t-18 27.5q-3 4 -14.5 4.5t-14.5 -3.5q-8 -10 -26 -35t-29 -37q-15 -18 -33 -18q-6 0 -12 2t-12.5 6.5t-10.5 7t-11 9.5t-9 8q-9 8 -9 32q0 22 8 37.5t25 32.5t23 25q1 2 9 20
q-12 4 -36.5 9t-44 11.5t-33.5 16.5q-20 13 -20 34q0 10 4.5 20.5t12.5 24.5t10 19q3 7 26 7q16 0 27 -3q16 -4 44 -15t38 -14q1 0 2 -0.5t2 -0.5q13 0 13 32z" />
    <glyph glyph-name="plus" unicode="+" horiz-adv-x="659" 
d="M208 483q15 0 15 16v30q0 43 1 76q2 57 22 74.5t69 17.5q45 0 60 -18t15 -52v-14q0 -10 -0.5 -27.5t-0.5 -25.5q0 -34 1 -52q0 -9 6.5 -15.5t15.5 -6.5q90 -3 122 -3h21q12 -1 18.5 -3t16 -8.5t13.5 -23t4 -42.5q0 -27 -10 -45t-18.5 -22.5t-16.5 -6.5q-36 -4 -70 -4
q-31 0 -79 2h-1q-9 0 -16 -6.5t-7 -15.5q-3 -111 -3 -132q-2 -29 -17.5 -45.5t-61.5 -16.5h-9q-46 0 -61.5 13.5t-16.5 37.5q-2 68 -2 85q0 14 0.5 33t0.5 24q0 11 -7.5 18.5t-17.5 7.5q-119 0 -143 3h-5q-15 0 -28.5 14t-13.5 45v9q0 79 50 79h1q9 1 51 1q19 0 55 -0.5
t47 -0.5z" />
    <glyph glyph-name="comma" unicode="," horiz-adv-x="305" 
d="M9 101q0 97 111 97q51 0 82 -31t31 -78q0 -24 -9 -48q-19 -68 -79 -138.5t-90 -70.5q-4 0 -5 1q-34 12 -34 37q0 12 12 29q6 8 25.5 29t33 40t13.5 33q0 5 -4 13q-10 15 -33 24.5t-38.5 22.5t-15.5 40z" />
    <glyph glyph-name="hyphen" unicode="-" horiz-adv-x="475" 
d="M208 380h91q62 0 94 -1q7 0 17 -10t10 -17q1 -19 1 -49q0 -55 -19.5 -66t-103.5 -11q-22 0 -67.5 -0.5t-68.5 -0.5q-68 0 -136 3q-11 1 -26 15.5t-15 25.5q0 9 -1.5 26.5t-1.5 25.5q0 43 27 57q19 11 66 11q27 0 74 -4.5t59 -4.5z" />
    <glyph glyph-name="period" unicode="." horiz-adv-x="276" 
d="M111 0q-111 0 -111 106q0 104 115 104q53 0 81.5 -28t28.5 -81q0 -49 -29.5 -75t-84.5 -26z" />
    <glyph glyph-name="slash" unicode="/" horiz-adv-x="705" 
d="M629 909q-20 -66 -54.5 -138t-85 -163t-71.5 -132q-23 -46 -63 -135.5t-76 -161t-73 -129.5q-16 -25 -65 -43q-8 -4 -26 -4l-32 2q-37 0 -37 29q0 16 9.5 37.5t24.5 46t17 29.5q88 185 122 252q180 353 249 505q13 31 43 47.5t61 16.5q26 0 43 -11t17 -31q0 -8 -3 -17z
" />
    <glyph glyph-name="zero" unicode="0" 
d="M356 844h1q154 0 246 -121t92 -306q0 -195 -91 -318.5t-255 -123.5h-1q-99 5 -180 73t-122.5 162t-41.5 186v19q0 177 100.5 302.5t251.5 126.5zM373 121q56 0 96 41.5t58 104.5t18 137q0 78 -20 146.5t-62 114t-98 45.5q-59 0 -103.5 -45t-65.5 -112t-21 -143
q0 -75 21 -139t67 -107t110 -43z" />
    <glyph glyph-name="one" unicode="1" horiz-adv-x="455" 
d="M399 99q-3 -66 -15.5 -81.5t-58.5 -15.5h-23q-44 1 -61.5 15.5t-19.5 49.5q-2 208 -2 311q0 41 1 123.5t1 123.5q0 31 -24 31q-15 0 -61.5 -17t-69.5 -17q-53 0 -60 73v11q0 23 11 40.5t20.5 24t34 18.5t29.5 15q140 79 225 79q75 0 75 -77q0 -21 0.5 -162t0.5 -233
q0 -234 -3 -312z" />
    <glyph glyph-name="two" unicode="2" horiz-adv-x="751" 
d="M123 5q-34 2 -55 26t-21 56q0 37 28 65q67 66 195 181.5t166 150.5q53 50 53 117q0 51 -31 88q-30 40 -84 40q-76 0 -147 -60q-4 -4 -28.5 -30t-46 -40t-43.5 -14q-33 0 -58 29q-22 23 -22 51q0 15 7 30t19 31t15 23q112 131 278 131q70 0 151 -27q59 -20 103.5 -74
t54.5 -126q5 -42 5 -49q0 -85 -42.5 -152t-121.5 -134q-116 -98 -173 -147q-1 0 -7 -10q1 0 7.5 -2t9.5 -2h171q85 0 127 1h3q33 0 48 -16t15 -50q0 -89 -69 -89h-258q-23 0 -69.5 -0.5t-69.5 -0.5q-55 0 -110 3z" />
    <glyph glyph-name="three" unicode="3" horiz-adv-x="747" 
d="M354 706q0 26 -47 26q-6 0 -19 -0.5t-18 -0.5h-33q-71 0 -103 2q-3 0 -15 0.5t-15.5 1t-13 1.5t-12.5 3t-10 4.5t-10 6.5t-6.5 9t-5.5 12t-2 16v22q0 40 16.5 63t63.5 25q3 0 14 0.5t18 0.5q54 0 211 -3.5t176 -3.5q55 0 80.5 -11.5t25.5 -46.5q0 -38 -5 -53.5t-28 -38.5
q-45 -44 -159 -149q-8 -6 -8 -17q0 -13 12 -19q94 -50 126 -73q44 -33 67 -83t23 -106q0 -45 -18 -94q-63 -163 -253 -199q-58 -10 -103 -10q-137 0 -261 72q-24 13 -24 42q0 45 52 81q18 12 32 12q12 0 24 -5.5t26 -15t19 -12.5q51 -30 126 -30q80 0 140 33.5t60 92.5
q0 65 -21.5 101t-46.5 48q-14 8 -50 8h-31h-27q-32 0 -47.5 0.5t-39 4t-35 10.5t-20 21t-8.5 35t11 38q21 22 79.5 76.5t86.5 86.5q6 8 6 16z" />
    <glyph glyph-name="four" unicode="4" horiz-adv-x="855" 
d="M626 796v-16q0 -321 2 -384q1 -29 44 -29q7 0 22 1t22 1h5h12t14 -0.5t13.5 -2t13.5 -4.5t11 -8.5t10.5 -13t6 -19t2.5 -26.5q0 -31 -12 -47t-22.5 -18.5t-37.5 -4.5q-5 -1 -8 -1h-35q-57 0 -61 -37q-9 -76 -11 -110q-2 -56 -15.5 -71t-66.5 -15h-17q-41 0 -56.5 29.5
t-15.5 125.5q0 48 -6.5 60t-37.5 12q-6 0 -34 -1t-49 -1q-26 1 -71 1q-35 0 -84.5 -1t-64.5 -1q-58 0 -78.5 13.5t-20.5 57.5q0 21 2 32.5t5.5 25.5t18.5 32t31.5 38t54 58.5t76.5 79t109 113.5t141 149q52 55 72.5 66t67.5 11q50 0 50 -66zM432 596q-137 -133 -183 -190
q-4 -5 -4 -14t5.5 -15.5t14.5 -6.5h69q17 0 39 -1t28 -1q30 0 36 15.5t6 80.5v128q0 4 -4 5.5t-7 -1.5z" />
    <glyph glyph-name="five" unicode="5" horiz-adv-x="707" 
d="M602 802q0 -50 -23.5 -65t-93.5 -15q-20 0 -95.5 2t-132.5 2q-6 0 -19 -0.5t-20 -0.5t-15.5 -9t-9.5 -17q-2 -50 -2 -62v-69q0 -18 19 -10q81 39 152 39q36 0 73 -10q163 -44 202 -169q14 -49 14 -111q0 -45 -6 -89q-17 -131 -161 -191q-89 -38 -173 -38q-52 0 -95 12
q-105 29 -171 59q-35 16 -35 40q0 8 3 17q28 73 63 73q8 0 16 -3q122 -52 208 -52q98 0 154 72q31 39 31 93q0 43 -23.5 78.5t-65.5 52.5q-26 12 -54 12q-37 0 -116.5 -26t-115.5 -26q-15 0 -22 1q-15 2 -25 14t-12 27q-12 153 -12 256q0 109 13 152q10 30 34.5 40t86.5 10
q21 0 128.5 -3t198.5 -3h37q65 0 65 -83z" />
    <glyph glyph-name="six" unicode="6" horiz-adv-x="730" 
d="M482 7q-60 -17 -117 -17q-95 0 -175.5 44t-128.5 130q-21 39 -41 130t-20 173q0 100 46.5 200t111.5 158q91 81 219 81q94 0 195 -51q5 -2 18.5 -8.5t20.5 -10.5t16.5 -11.5t14 -16.5t4.5 -21q0 -20 -17 -53q-20 -34 -67 -34q-31 0 -113 31q-33 8 -67 8q-46 0 -84 -19
t-61 -45t-40 -61.5t-24.5 -60t-11.5 -48.5q-1 -5 3.5 -7t7.5 2q77 84 235 84q3 0 9 -0.5t9 -0.5q32 -1 64.5 -10t67 -31.5t61 -56t43.5 -88.5t17 -124q0 -88 -56 -164.5t-140 -101.5zM519 296q0 64 -52 99t-119 35q-60 0 -104.5 -30.5t-52.5 -88.5q-1 -4 -1 -13
q0 -61 62.5 -110t130.5 -49q28 0 53 11q35 16 59 58.5t24 87.5z" />
    <glyph glyph-name="seven" unicode="7" horiz-adv-x="654" 
d="M607 796q-48 -117 -121 -263.5t-124.5 -241t-140.5 -254.5q-21 -37 -96 -37q-69 0 -82 34q0 1 -1 3.5t-1.5 4.5t-0.5 4q0 22 21 62q38 69 331 595q2 4 2 8q0 16 -15 18q-40 3 -115 3q-32 0 -97 -1.5t-100 -1.5h-11q-33 0 -59 18t-26 60q0 4 1.5 17.5t2.5 18t3.5 15
t7.5 15t12 10.5t18.5 8t26.5 2q57 0 209 -1t189 -1h32q90 -2 112 -10q31 -13 32 -42q0 -19 -10 -43z" />
    <glyph glyph-name="eight" unicode="8" horiz-adv-x="757" 
d="M-15 245q-4 20 -4 36q0 89 92 158q25 20 26 20q18 9 18 17t-18 21q-80 54 -80 154q0 60 30 106.5t78.5 72.5t101.5 39t108 13h5q73 -1 143 -21t123 -65.5t56 -108.5q0 -3 0.5 -8t0.5 -7q0 -75 -18.5 -114.5t-64.5 -68.5q-3 -2 -3 -13.5t3 -13.5q73 -42 95.5 -78
t22.5 -101v-9q0 -68 -30.5 -122.5t-73.5 -85.5t-95 -51.5t-90.5 -27.5t-64.5 -7q-29 0 -62 4.5t-74.5 15.5t-79 31t-69.5 48t-52.5 71t-23.5 95zM340 396q-60 0 -95 -12q-51 -19 -73 -84q-5 -14 -5 -34q0 -58 62 -94q57 -31 110 -31q31 0 88 16q41 13 66.5 47t25.5 72
q0 29 -13 51q-41 69 -166 69zM441 546q15 13 28.5 40.5t13.5 52.5q0 20 -8 32q-15 31 -54.5 45.5t-83.5 14.5q-32 0 -52 -7q-21 -9 -29.5 -13t-24 -14.5t-22.5 -24.5t-9 -33v-9q0 -43 38.5 -76.5t103.5 -34.5q24 0 36 1t29.5 7t33.5 19z" />
    <glyph glyph-name="nine" unicode="9" horiz-adv-x="749" 
d="M563 87q-101 -98 -244 -98q-33 0 -71 6q-110 20 -153 58q-24 15 -24 44q0 25 17 55q20 34 47 34q11 0 22 -4t30.5 -13.5t25.5 -12.5q52 -23 99 -23q64 0 110.5 35.5t60.5 80.5q18 57 27 106q1 4 -2.5 7.5t-7.5 1.5q-3 -1 -18 -9.5t-25.5 -14t-31 -14t-38 -13.5t-41.5 -9
t-48 -4q-113 0 -218 85q-82 76 -82 196q0 82 42.5 153t117.5 104q98 42 189 42q113 0 199.5 -63.5t121.5 -181.5q17 -79 17 -169q0 -120 -32.5 -222t-89.5 -157zM342 729q-71 0 -115 -36t-44 -94q0 -76 39 -116.5t112 -42.5h7q74 0 122 45.5t48 100.5v1q-1 51 -45.5 96.5
t-111.5 45.5h-12z" />
    <glyph glyph-name="colon" unicode=":" horiz-adv-x="318" 
d="M152 809q51 0 83 -30t32 -77q0 -50 -33.5 -77.5t-78.5 -27.5q-46 0 -79 28.5t-33 80.5q0 103 109 103zM153 368q52 0 83 -29t31 -78q0 -45 -38 -75t-85 -30q-52 0 -82 37q-24 28 -24 64q0 43 34.5 77t80.5 34z" />
    <glyph glyph-name="semicolon" unicode=";" horiz-adv-x="306" 
d="M118 818q52 0 85 -29t33 -76q0 -50 -34 -78.5t-80 -28.5t-79 28.5t-33 80.5q0 103 108 103zM9 281q0 47 29 71t82 24q51 0 82 -30.5t31 -77.5q0 -25 -9 -49q-19 -68 -79 -138t-90 -70q-4 0 -5 1q-33 12 -33 37q0 13 11 29q6 8 25.5 29t33 40t13.5 33q0 9 -4 14
q-10 15 -33 24.5t-38.5 22.5t-15.5 40z" />
    <glyph glyph-name="less" unicode="&#x3c;" horiz-adv-x="691" 
d="M555 510q-244 -69 -316 -127q14 -15 16 -15q332 -125 350 -132q11 -5 22 -20.5t11 -27.5q0 -17 -3 -34.5t-9 -40.5t-8 -34q-268 79 -569 224q-32 15 -32 54q0 10 3 30.5t3 29.5q0 12 10.5 27t22.5 20q109 46 412 170q10 4 40 18.5t51 22t37 7.5q44 0 44 -70
q0 -50 -16.5 -69t-68.5 -33z" />
    <glyph glyph-name="equal" unicode="=" horiz-adv-x="671" 
d="M314 540q2 0 56.5 3t93.5 3q147 0 149 -40q0 -7 1.5 -25.5t1.5 -25.5q0 -41 -17.5 -49.5t-87.5 -8.5h-459q-24 0 -34.5 10.5t-10.5 34.5v33q0 44 7 54.5t39 10.5h261zM314 211q2 0 56.5 3t93.5 3q147 0 149 -40q0 -7 1.5 -25.5t1.5 -25.5q0 -41 -17.5 -49t-87.5 -8
q-41 0 -122 0.5t-121 0.5q-36 0 -107.5 -0.5t-107.5 -0.5h-1q-24 0 -34.5 10.5t-10.5 34.5v32q0 44 7 55t39 11q5 0 18.5 -0.5t22.5 -0.5h9q14 0 40.5 0.5t39.5 0.5q22 0 65.5 -0.5t65.5 -0.5z" />
    <glyph glyph-name="greater" unicode="&#x3e;" horiz-adv-x="678" 
d="M10 153q0 54 19.5 74t84.5 38q32 8 71 21.5t64 23.5t71.5 29t64.5 26q2 1 22 15q-20 14 -22 15q-36 14 -106 36t-127.5 44t-100.5 48q-8 5 -14.5 12.5t-16 24.5t-10.5 18q-4 7 -4 25q0 22 6 45.5t13 30.5q8 7 20 7q18 0 69 -27q63 -33 224 -90t237 -104q16 -9 30 -28
t15 -36q2 -28 2 -37q0 -41 -18 -57t-81 -38q-84 -30 -243 -97.5t-237 -95.5q-3 -1 -8 -1q-25 0 -25 66v12z" />
    <glyph glyph-name="question" unicode="?" horiz-adv-x="649" 
d="M281 881zM254 0q-54 0 -84.5 27.5t-30.5 76.5q0 47 31.5 76.5t82.5 29.5q58 0 85 -26.5t27 -83.5q0 -100 -111 -100zM281 881h8q187 0 264 -140q27 -49 27 -102q0 -81 -54 -138q-8 -9 -57.5 -45t-90.5 -72t-41 -53q0 -28 -12 -38t-34 -10q-10 0 -28 2q-75 5 -78 15
q-8 24 -8 44q0 25 8.5 46t31.5 42.5t35 31t48.5 33t41.5 26.5q52 36 52 105q0 62 -45 87q-39 22 -76 22q-57 0 -99 -51q-5 -6 -6 -23.5t-5 -23.5q-11 -18 -43 -42q-3 -3 -17 -3q-25 0 -60.5 7.5t-36.5 14.5q-3 22 -3 48q0 52 17 82q45 78 102 106.5t159 28.5z" />
    <glyph glyph-name="at" unicode="@" horiz-adv-x="1274" 
d="M1084 384q0 71 -31 136.5t-80.5 112.5t-109.5 82t-120 52.5t-110 17.5q-23 0 -33 -2q-95 -13 -179 -61.5t-140 -125.5q-92 -128 -92 -260q0 -168 140 -316q56 -59 131 -96.5t127.5 -48.5t95.5 -11h7q90 4 143 12q28 4 32 4q11 0 17 -3.5t7.5 -8t4 -16t5.5 -18.5
q0 -6 2 -17.5t2 -16.5q0 -18 -31 -28q-113 -40 -232 -40q-51 0 -87 5q-46 6 -102 28t-116 60.5t-112.5 87.5t-92.5 115.5t-55 137.5q-28 78 -28 161q0 127 56 248t150 196q170 137 382 137q54 0 108.5 -10.5t87.5 -21.5t95 -35q85 -50 141.5 -104.5t90.5 -129.5
q52 -114 52 -238q0 -55 -11 -116q-25 -133 -91 -201q-61 -62 -161 -62q-95 0 -150 58q-10 10 -17 19.5t-9.5 14t-5 7.5t-5.5 3l-40 -19q-10 -5 -32 -17t-33 -17.5t-30.5 -11.5t-38.5 -7q-3 0 -8.5 -0.5t-8.5 -0.5q-69 0 -131.5 37t-95.5 98q-43 77 -43 171q0 102 54.5 182.5
t153.5 107.5q33 9 61 9q51 0 122 -33q7 -3 23 -17.5t27 -14.5t31 18t33 19q2 0 4 0.5t3 0.5q61 0 83 -29t22 -85q0 -20 -3.5 -66t-3.5 -70v-195q0 -26 13.5 -41t34.5 -15q17 0 33 9q35 20 64.5 110t29.5 169zM743 322q0 69 -34 109t-93 40q-71 0 -115.5 -41t-44.5 -106
q0 -60 43 -106.5t98 -46.5q146 0 146 151z" />
    <glyph glyph-name="A" unicode="A" horiz-adv-x="827" 
d="M697 -2h-40q-20 0 -31.5 1t-21.5 5.5t-14 9t-9.5 18t-8.5 26.5t-10.5 39t-16.5 51q-6 19 -56 29.5t-116 10.5q-67 0 -118 -12t-60 -35q-8 -19 -16 -47t-13.5 -42.5t-15.5 -29.5t-27 -21.5t-43 -6.5q-18 0 -42 3q-26 4 -41 18t-15 35q0 15 5 26q25 63 91 242t107 275
q19 46 38.5 98.5t28.5 77.5t22.5 51.5t27.5 37t35.5 17.5t54.5 8h18q59 0 81.5 -34.5t78.5 -200.5q89 -264 176 -491q2 -5 11 -28t12 -31.5t6.5 -23.5t3.5 -26q0 -50 -82 -50zM262 350v-5q0 -7 5.5 -13t13.5 -7l34 -3q27 -3 103 -3q13 0 34.5 1t30.5 1q8 0 12.5 6t2.5 13
q-43 130 -105 296q-3 7 -10.5 7.5t-10.5 -6.5q-21 -44 -57.5 -137t-52.5 -150z" />
    <glyph glyph-name="B" unicode="B" horiz-adv-x="707" 
d="M1 66v737q0 72 74 74q156 6 176 6q62 0 112 -6.5t101.5 -23t91 -50t61.5 -83.5q18 -41 18 -82q0 -51 -22.5 -97.5t-63.5 -73.5q-12 -8 -17 -13q-3 -3 1 -7t11 -7l8 -4q58 -27 88.5 -79t30.5 -114q0 -64 -32 -120t-89 -84q-39 -20 -89 -30t-89 -11.5t-111 -1.5
q-29 0 -89 0.5t-89 0.5h-15q-67 0 -67 69zM185 698v-29q0 -96 2 -142q1 -28 99 -28q66 0 104 7q26 4 44 38.5t18 70.5q0 19 -6 32q-9 51 -51.5 75t-97.5 24q-44 0 -78 -14t-34 -34zM306 152q159 0 169 80q0 41 -5 64t-22.5 41.5t-51 26t-90.5 7.5q-34 0 -77 -3
q-27 -1 -35.5 -15.5t-8.5 -43.5q0 -6 0.5 -20t0.5 -22q0 -84 13.5 -99.5t91.5 -15.5h15z" />
    <glyph glyph-name="C" unicode="C" horiz-adv-x="839" 
d="M757 749q0 -39 -19.5 -67t-50.5 -28q-12 0 -25.5 4.5t-32.5 13.5t-28 12q-66 25 -131 25q-85 0 -153 -41.5t-102 -123.5q-25 -61 -25 -122q0 -83 43 -151.5t125 -100.5q64 -24 122 -24q81 0 156 39q38 19 54 19q19 0 32.5 -15t37.5 -55q9 -16 9 -29q0 -14 -11 -27
t-20 -18.5t-29 -17.5q-101 -61 -227 -61q-46 0 -88 7q-54 9 -102 24t-103.5 48.5t-94.5 79t-65.5 120.5t-26.5 168q0 148 85 260.5t217 157.5q63 21 159 21q83 0 158.5 -20t121.5 -62q14 -10 14 -36z" />
    <glyph glyph-name="D" unicode="D" horiz-adv-x="800" 
d="M3 453q0 87 -1 212.5t-1 144.5q0 65 68 67h37q133 0 232.5 -10.5t168.5 -25.5t115 -48t71.5 -62.5t38 -84.5t15.5 -98t3 -119q0 -97 -10 -161t-40.5 -115t-75 -79t-126 -46.5t-180 -24t-249.5 -5.5h-19q-49 0 -49 55v1q2 132 2 399zM184 168q0 -6 7 -10.5t12 -4.5
q88 0 146 4t102.5 17.5t68 31t38 52t18.5 73.5t4 103q0 120 -27.5 178t-105.5 84t-238 26q-16 0 -20.5 -5.5t-4.5 -14.5v-4q0 -13 -0.5 -102t-0.5 -151q0 -232 1 -277z" />
    <glyph glyph-name="E" unicode="E" horiz-adv-x="633" 
d="M3 438q0 35 -0.5 105t-0.5 105q0 70 1 105q1 37 5.5 58.5t12 36t26 20.5t39.5 8t60 2q74 0 169.5 2t120.5 2q92 0 119.5 -19t27.5 -83q0 -38 -23.5 -49.5t-91.5 -11.5q-20 0 -95 1.5t-132 1.5h-29q-33 0 -33 -90q0 -29 6 -101q0 -6 9.5 -14.5t15.5 -8.5q90 -2 134 -2h109
q36 0 47.5 -16t11.5 -45q0 -5 -0.5 -15t-0.5 -15q-1 -40 -26 -53t-87 -13q-17 0 -68.5 1t-87.5 1h-30q-7 0 -17 -10t-10 -17q-2 -29 -2 -100v-42q0 -12 10 -20.5t22 -8.5h12q48 0 115.5 0.5t87.5 0.5q88 0 113.5 -13.5t25.5 -62.5q0 -50 -7 -65t-28 -15h-13l-254 -1
q-34 0 -102 0.5t-102 0.5q-60 0 -60 61v379z" />
    <glyph glyph-name="F" unicode="F" horiz-adv-x="612" 
d="M3 434v318q0 67 22 92.5t87 32.5q67 7 147 7q51 0 147.5 -5t108.5 -5q74 -3 74 -49v-13q0 -49 -14 -68.5t-48 -19.5h-5q-43 0 -120.5 5t-106.5 5q-93 0 -97 -38q-3 -34 -3 -67q0 -47 3 -93q1 -24 33 -31.5t98 -7.5q16 0 52.5 0.5t57.5 0.5h24q48 0 63.5 -9.5t15.5 -48.5
v-18q-1 -21 -5.5 -35t-9.5 -21t-16.5 -11t-18.5 -4.5t-24 -1t-25 -0.5q-100 -5 -186 -5h-19q-15 0 -26.5 -11t-11.5 -26q-3 -198 -3 -199q0 -35 -3 -53.5t-15.5 -33.5t-36.5 -20.5t-66 -5.5q-12 0 -21.5 1t-16.5 5t-12 5.5t-8.5 9.5t-5.5 10.5t-3.5 14t-2 14.5t-1 18
t-0.5 18q-3 77 -3 156q0 31 0.5 93.5t0.5 93.5z" />
    <glyph glyph-name="G" unicode="G" horiz-adv-x="828" 
d="M622 253q0 20 -15.5 30.5t-32.5 12.5t-44 2q-9 0 -19 -0.5t-12 -0.5q-1 0 -3 1h-2h-4q-2 0 -6.5 -0.5t-7.5 -0.5q-54 0 -58 76q0 2 -0.5 4.5t-0.5 3.5q0 21 7 34t20.5 18.5t21.5 6.5t21 2q30 1 80 1q97 0 141.5 -11.5t58.5 -38.5q15 -30 15 -119q0 -45 -6.5 -87.5
t-20 -84t-40 -71t-62.5 -38.5q-72 -16 -167 -16q-54 0 -104 7t-107.5 23.5t-104.5 49.5t-86 80t-61 120t-22 165q0 46 4.5 85.5t19.5 88.5t40.5 88t71 77.5t106.5 64.5t152 42t203 16h4q68 -5 88 -23.5t20 -70.5q0 -69 -86 -69q-14 0 -39.5 2.5t-53.5 2.5q-30 0 -58 -2.5
t-64.5 -11.5t-67 -23t-61.5 -39t-53 -58.5t-36.5 -82t-15.5 -108.5q0 -70 31.5 -125t81.5 -85.5t103.5 -45.5t106.5 -15t87.5 14.5t35.5 38.5q1 18 1 61v9z" />
    <glyph glyph-name="H" unicode="H" 
d="M694 792v-562q0 -27 0.5 -81.5t0.5 -81.5q0 -70 -62 -70h-9q-2 0 -5.5 0.5t-5.5 0.5q-5 0 -13 -0.5t-13 -0.5q-55 0 -68 41q-4 11 -4 48q0 17 1 62.5t1 69.5q0 121 -29 121q-94 2 -141 2t-141 -2q-6 0 -14.5 -9t-8.5 -15q0 -10 -0.5 -31.5t-0.5 -31.5v-73q0 -84 -3 -126
q-1 -28 -26 -44t-59 -16q-37 0 -65.5 19.5t-28.5 53.5v737q0 75 96 75q1 0 2.5 -0.5t2.5 -0.5q39 -1 60 -16.5t21 -53.5q0 -20 -0.5 -60.5t-0.5 -60.5q0 -56 2 -168q0 -7 9 -16.5t16 -9.5l139 -2q45 0 137 2q7 0 17.5 10.5t10.5 18.5v48q0 39 -1.5 97t-1.5 77q0 75 17 105
t71 30h11q50 -2 68 -20t18 -66z" />
    <glyph glyph-name="I" unicode="I" horiz-adv-x="246" 
d="M195 95q0 -46 -28 -76t-68 -30q-28 0 -57 17q-16 9 -27.5 36t-11.5 51q-2 114 -2 341q0 113 2 341q0 19 2.5 33t5 23.5t10 16t11.5 10t16 5.5t17.5 2.5t22 1t22.5 0.5q2 0 4 0.5t4 0.5q22 0 37.5 -7t22.5 -13t11 -22.5t4 -19t1 -18.5q2 -114 2 -172q0 -30 -0.5 -90
t-0.5 -90v-341z" />
    <glyph glyph-name="J" unicode="J" horiz-adv-x="760" 
d="M189 303q0 -68 38.5 -109.5t114.5 -41.5q31 0 59.5 7.5t56 24.5t44 50t16.5 78v4q3 67 3 201v112q0 112 2 168q2 48 8 59q15 28 86 28q32 0 52.5 -7t28 -20t9.5 -21t2 -19v-1q0 -38 -3.5 -244.5t-3.5 -244.5q0 -115 -56.5 -201t-161.5 -122q-69 -23 -143 -23
q-86 0 -160.5 35t-119.5 106q-53 82 -53 164q0 63 35 120q17 28 65 28q7 0 29 -2q35 -9 48 -17t15 -20q1 -4 1 -11q0 -12 -5.5 -36t-5.5 -35q0 -2 -0.5 -5.5t-0.5 -4.5z" />
    <glyph glyph-name="K" unicode="K" horiz-adv-x="686" 
d="M181 189q0 -23 0.5 -68.5t0.5 -67.5q0 -29 -16 -46.5t-41 -17.5h-2q-11 0 -27.5 -0.5t-22.5 -0.5q-28 0 -40 7t-21 31q-4 11 -8 294.5t-4 478.5v6q0 35 28.5 55t65.5 20q36 0 62 -19t26 -53v-2q-2 -104 -2 -158q0 -35 2 -107q0 -9 9 -11.5t14 4.5q20 30 92 136.5
t100 149.5q4 5 17.5 22t20 21t26.5 10t51 7h9q82 0 82 -44q0 -18 -14 -46q-37 -55 -113.5 -163t-113.5 -163q-8 -12 -1 -22q15 -25 73.5 -106.5t112.5 -155t57 -77.5q36 -51 36 -78q0 -41 -69 -44h-12q-43 0 -58.5 2t-38 22.5t-36.5 46t-64 96t-111 148.5q-11 14 -31 14
q-15 0 -27 -10.5t-12 -27.5v-83z" />
    <glyph glyph-name="L" unicode="L" horiz-adv-x="626" 
d="M11 435q0 31 -0.5 95t-0.5 95t1 92t1 92v13q0 12 2.5 21t11 19t28.5 16t50 6q61 -3 75 -20.5t14 -79.5v-181q0 -282 1 -422q0 -7 10.5 -17.5t18.5 -10.5l266 -1h1q47 0 66 -18.5t19 -63.5q0 -39 -19.5 -56t-65.5 -17l-232 1q-30 0 -90 -0.5t-89 -0.5h-1q-35 0 -51.5 14.5
t-16.5 49.5q0 27 0.5 81t0.5 81v212z" />
    <glyph glyph-name="M" unicode="M" horiz-adv-x="1088" 
d="M842 861h9q28 0 45 -4.5t26 -17.5t11.5 -19.5t7.5 -26.5q11 -40 48 -353t42 -381q0 -3 0.5 -8t0.5 -7q0 -49 -20 -63.5t-58 -14.5h-18q-51 0 -69.5 20.5t-25.5 90.5q-5 45 -22.5 217.5t-19.5 186.5q0 5 -4 8t-9 2t-7 -6q-11 -23 -80 -207t-97 -233q-18 -33 -36 -44
t-45 -11h-1q-16 0 -29.5 3.5t-21 7.5t-15.5 13.5t-10.5 14t-8.5 16.5t-7 15q-20 39 -49.5 106t-48.5 114.5t-48.5 121.5t-30.5 78q-2 5 -9 5t-8 -6q-9 -57 -16.5 -113.5t-11.5 -94.5t-10 -103t-11 -108q-5 -50 -23.5 -70t-61.5 -20h-13q-41 3 -59 18t-18 55q0 19 3 43
l23 184t43.5 338t26.5 188q4 27 18 41t29.5 18t44.5 6q31 -1 41 -2.5t25 -9.5t23.5 -24.5t19.5 -47.5q102 -297 203 -505q3 -5 10 -5.5t9 5.5q162 377 219 525l2 7q3 7 5 11.5t6.5 12t11 12.5t16 10.5t23 8t30.5 2.5z" />
    <glyph glyph-name="N" unicode="N" horiz-adv-x="789" 
d="M542 744q2 65 27 90q23 23 66 23h7q20 0 35 -2.5t24.5 -8.5t15.5 -10.5t9 -15.5t4 -15.5t2 -18.5t1 -17q1 -17 1 -212q0 -221 -2 -495q0 -75 -47 -87q-22 -5 -39 -5q-50 0 -77 37q-68 91 -190 259.5t-168 230.5q-6 9 -10 8q-4 -2 -4 -17v-449q0 -36 -18 -52.5t-80 -16.5
q-53 0 -69.5 18.5t-16.5 47.5v19q0 60 -1 179.5t-1 179.5q0 59 1 177t1 177v10q0 16 2 26.5t8 24.5t21.5 21t39.5 7h9q40 0 57 -11.5t43 -47.5q175 -243 339 -469q1 -1 3 -1.5t3.5 0.5t1.5 3v233q0 118 2 180z" />
    <glyph glyph-name="O" unicode="O" horiz-adv-x="964" 
d="M454 -40h-8q-85 0 -166.5 36t-143 97.5t-99 149.5t-37.5 186q4 82 39.5 158.5t94.5 135t143 93.5t178 35h20q176 -7 304.5 -132.5t128.5 -316.5v-8q-2 -114 -59.5 -213t-162 -160t-232.5 -61zM182 421v-13q0 -119 80 -199.5t178 -83.5q2 0 6 -0.5t5 -0.5q117 0 193.5 82
t80.5 188v12q0 113 -76.5 195t-179.5 82q-3 0 -9 -0.5t-9 -0.5q-6 1 -18 1q-99 0 -173 -83t-78 -179z" />
    <glyph glyph-name="P" unicode="P" horiz-adv-x="710" 
d="M0 412v360q0 80 79 80h277q205 -2 274 -168q22 -52 22 -118q0 -51 -13 -102q-22 -87 -98.5 -140.5t-172.5 -53.5q-3 0 -9.5 0.5t-9.5 0.5q-40 2 -60 2q-23 0 -69 -2q-15 -1 -26 -12.5t-12 -26.5v-114q0 -44 -1 -68q-2 -41 -19 -58t-71 -17q-56 0 -72.5 11.5t-16.5 58.5v9
q1 28 1 84q0 45 -1.5 136.5t-1.5 137.5zM312 426h35q32 0 51 9q32 13 51 45.5t19 73.5q0 36 -15 76q-16 46 -58.5 67t-94.5 21q-77 0 -111 -30q-10 -5 -17.5 -31t-7.5 -60q0 -68 34.5 -119t113.5 -52z" />
    <glyph glyph-name="Q" unicode="Q" horiz-adv-x="962" 
d="M627 -14q-11 -6 -11 -18q0 -18 19 -23q79 -18 159 -44q26 -8 36.5 -19.5t10.5 -36.5q0 -18 -2 -29q-9 -59 -70 -59q-17 0 -55 6q-28 7 -77 19q-78 19 -111.5 28t-72 23.5t-51 28.5t-12.5 34q0 6 3 17t3 16q0 9 -5 14q-21 25 -83.5 44t-105.5 45q-56 34 -89.5 74
t-62.5 100q-48 94 -48 194q0 93 39 178q71 160 213 225q102 47 202 47q50 0 90 -9q160 -36 256 -142q59 -65 83.5 -122t24.5 -146v-5q0 -165 -81 -290t-202 -150zM480 684h-15q-89 0 -154.5 -44.5t-95 -108t-29.5 -133.5q0 -112 71.5 -195t184.5 -90q4 0 11 -0.5t11 -0.5
q116 0 190.5 79t74.5 200q0 73 -22 130t-58.5 91t-79 52t-89.5 20z" />
    <glyph glyph-name="R" unicode="R" horiz-adv-x="712" 
d="M3 414q0 32 -0.5 95t-0.5 94q0 95 3 190q1 15 20.5 35t34.5 21q132 6 199 6t149 -5q75 -5 138.5 -48t94.5 -127q18 -49 18 -116q0 -85 -34 -153t-103 -89q-36 -11 -36 -30q0 -20 34 -61q15 -25 51.5 -75t58 -86.5t21.5 -60.5q0 -45 -82 -45h-39q-48 0 -64 9t-36 47
q-10 25 -65 124t-65 123q-4 8 -16 16.5t-22 8.5h-28q-36 0 -43 -12t-7 -65v-169q-1 -42 -17.5 -58.5t-77.5 -18.5h-7q-77 0 -77 59v10q-3 63 -3 190q0 31 0.5 95t0.5 96zM184 569v-57q0 -34 1 -50q1 -6 9.5 -15t14.5 -9q20 -1 62 -1h79q63 0 93.5 35.5t30.5 88.5
q0 35 -12 70q-16 42 -47 54.5t-81 12.5h-21h-43t-31 -3t-24 -4.5t-14.5 -10.5t-10 -14t-3.5 -23.5t-3 -31v-42.5z" />
    <glyph glyph-name="S" unicode="S" horiz-adv-x="670" 
d="M331 -42q-102 4 -173 29.5t-121 88.5q-1 1 -7 8.5t-10.5 13t-11 15.5t-10.5 18t-7 18t-3 19q0 41 65 50q35 7 45 7q16 0 24.5 -8.5t30 -31.5t56.5 -47q57 -39 116 -39t100 38.5t41 80.5q0 14 -7 28q-22 44 -86.5 75t-146 56t-109.5 41q-97 55 -97 174q0 24 9 65
q25 115 149 165q56 22 129 22q63 0 120 -15.5t106.5 -55.5t68.5 -101q1 -4 1 -12q0 -24 -38 -45q-33 -18 -56 -18q-39 0 -75 52q-35 50 -112 50q-76 0 -110 -47q-15 -21 -15 -43q0 -27 20.5 -50.5t48.5 -33.5q170 -66 253 -103q60 -25 88 -79.5t28 -121.5q0 -36 -10 -78
q-17 -78 -105.5 -131.5t-184.5 -53.5h-4z" />
    <glyph glyph-name="T" unicode="T" horiz-adv-x="722" 
d="M343 -20h-12q-29 0 -48.5 10t-26.5 25t-9.5 24.5t-2.5 17.5v435q0 119 -1 178q0 10 -8 17.5t-18 8.5q-28 2 -84 2h-92q-26 0 -45.5 18t-20.5 43q0 3 -0.5 8.5t-0.5 7.5q0 77 69 77h577q39 0 51 -19.5t12 -57.5v-18q0 -59 -65 -59h-86q-25 0 -77 -2q-8 -1 -18 -11t-10 -17
q-1 -67 -1 -200v-99q0 -200 -2 -299q-1 -17 -3 -28t-9 -27.5t-24.5 -25.5t-44.5 -9z" />
    <glyph glyph-name="U" unicode="U" horiz-adv-x="772" 
d="M97 852h12q12 0 22.5 -2t18.5 -5t14 -8t10 -9.5t7 -12t4.5 -11.5t2.5 -12.5t1.5 -11.5t0.5 -10.5v-8.5q0 -13 1 -36t1.5 -41.5t0.5 -35.5q0 -23 -1 -68.5t-1 -68.5v-203q0 -84 46.5 -133t136.5 -49h1q45 1 77.5 20.5t49 50.5t24 62t8.5 65q3 104 3 197q0 40 -1 123
t-1 127q3 45 20 64.5t63 19.5q52 0 73 -15.5t23 -65.5q5 -130 5 -250q0 -124 -4 -215q-5 -96 -47 -181q-63 -125 -227 -158q-53 -10 -92 -10q-134 0 -240 90q-96 83 -99 200q-10 322 -10 483v22q0 17 2 29t10 30t29.5 28t55.5 10z" />
    <glyph glyph-name="V" unicode="V" horiz-adv-x="777" 
d="M100 852h17q45 0 66 -12.5t29 -59.5q89 -336 152 -498q5 -11 15 -11q13 0 18 13q19 59 91 264.5t85 252.5q10 37 27 45.5t78 8.5q67 0 67 -49q0 -14 -6 -34q-27 -96 -63 -210.5t-82.5 -257.5t-69.5 -215q-5 -15 -12 -39.5t-9.5 -32t-10 -21t-14 -16t-21.5 -8t-33 -6
t-47 -0.5h-25q-52 0 -70.5 18.5t-45.5 104.5q-3 9 -38 128.5t-80.5 260t-105.5 313.5q-2 8 -2 12q0 22 25 35.5t65 13.5z" />
    <glyph glyph-name="W" unicode="W" horiz-adv-x="1204" 
d="M14 796q0 33 38 49.5t91 16.5q22 0 31 -11.5t22 -52.5q35 -116 63.5 -225.5t42.5 -161.5t25 -76q5 -9 14 -9q12 0 15 12q8 29 26.5 93.5t30.5 104.5t29.5 93t32.5 93q3 8 8.5 26.5t9.5 28t13 21.5t25 17t39 5h7q1 0 2.5 0.5t2.5 0.5q27 0 45.5 -7t29 -25t14.5 -28t11 -36
q13 -45 47 -174t59 -203q3 -11 16 -11q12 0 15 12q81 296 132 429q3 7 8 21.5t7 18.5t6.5 13.5t7.5 11.5t9 6.5t13.5 5.5t17.5 2t24 1q2 0 8.5 -0.5t9.5 -0.5q2 0 4 0.5t4 0.5q41 0 57 -11t16 -33q0 -16 -5 -38q-4 -40 -103 -352t-139 -409q-10 -23 -22 -34.5t-22.5 -14
t-35.5 -4.5h-2q-23 1 -38.5 5t-25 14.5t-13 15.5t-9.5 24.5t-8 23.5q-24 70 -45.5 141.5t-46 157.5t-38.5 132q-3 10 -15 10q-11 0 -15 -10q-30 -80 -73.5 -228.5t-64.5 -211.5q-6 -17 -9.5 -25.5t-13.5 -22t-27 -20t-41 -6.5h-8q-16 1 -29 4.5t-22.5 12.5t-15.5 15.5
t-12 21.5t-8.5 21.5t-7 24t-5.5 21.5q-4 14 -53 182t-95 323.5t-57 185.5q-4 9 -4 22z" />
    <glyph glyph-name="X" unicode="X" horiz-adv-x="877" 
d="M431 259q-8 11 -21 11q-14 0 -22 -10q-133 -156 -215 -258q-25 -36 -99 -36q-26 0 -42 3q-50 6 -50 49q0 13 6 22q28 39 281 374q9 13 9 23q0 11 -9 24q-16 21 -110.5 145t-131.5 171q-12 17 -12 29q0 17 14 30t34 18q55 12 75 12q8 0 14.5 -0.5t13 -3.5t10.5 -4.5
t10.5 -7.5t9.5 -8.5t10 -11t9.5 -12t11 -15.5t12.5 -17q44 -62 144 -188q6 -9 18 -9q11 0 18 9q132 169 178 226q14 18 21 25t22 13.5t37 6.5q10 0 44 -4q64 -13 64 -54q0 -22 -13 -38q-19 -25 -240 -306q-8 -9 -8 -25q0 -13 10 -25q210 -260 283 -356q22 -25 22 -49
q0 -49 -88 -49h-13q-36 0 -57.5 8t-42.5 36q-96 107 -207 252z" />
    <glyph glyph-name="Y" unicode="Y" horiz-adv-x="813" 
d="M199 481q-32 43 -64.5 91t-75 114t-60.5 94q-13 20 -13 35q0 47 98 47q20 0 34.5 -0.5t26 -4.5t17.5 -6t14 -10.5t11 -12t12 -17.5t13 -20q26 -45 175 -257q4 -6 11.5 -5.5t11.5 6.5q3 5 73 125t109 174q17 24 31 29.5t48 5.5h40q75 0 75 -40q0 -10 -4.5 -21t-9.5 -17
l-4 -6q-1 -2 -58 -90.5t-124.5 -193.5t-90.5 -140q-12 -19 -12 -36q0 -193 -3 -280q-4 -44 -19.5 -56t-54.5 -12h-17q-54 0 -71.5 9.5t-19.5 50.5q-7 133 -7 284q0 19 -9 35q-23 44 -83 125z" />
    <glyph glyph-name="Z" unicode="Z" horiz-adv-x="818" 
d="M89 -26h-1l-2 -1q-32 0 -51.5 25.5t-19.5 55.5q0 20 9 32q138 196 448 593l7 13v5q-3 5 -17 4h-328q-20 0 -33.5 3t-27.5 18t-17 42q-2 14 0 30q3 40 23.5 50.5t81.5 10.5h112q67 0 222 -0.5t196 -0.5q15 0 26 -11t12 -26q0 -3 0.5 -11t0.5 -12q0 -69 -12 -86
q-61 -86 -170.5 -226.5t-188.5 -237.5l-79 -98q-6 -5 -1.5 -11.5t10.5 -4.5q273 0 410 -1q41 0 54.5 -12.5t13.5 -65.5q0 -45 -15 -60t-53 -16q-93 -1 -538 -1h-72z" />
    <glyph glyph-name="bracketleft" unicode="[" horiz-adv-x="408" 
d="M1 942q0 55 55 55h130q82 0 123 -2q11 -1 26 -16t15 -26q0 -75 -24 -103q-9 -10 -40 -10q-23 0 -55 4q-14 2 -18 2q-27 0 -37 -14.5t-10 -48.5q0 -401 3 -803q0 -8 11 -19t20 -12q7 -1 61 -4.5t77 -16.5q13 -8 13 -51q0 -8 -3 -59q-1 -7 -20 -15t-33 -9q-82 -2 -124 -2
q-66 0 -118 4q-14 1 -31.5 18.5t-17.5 30.5q-3 156 -3 644v453z" />
    <glyph glyph-name="backslash" unicode="\" horiz-adv-x="609" 
d="M499 2h-6q-15 0 -28.5 3.5t-23.5 10.5t-17.5 13.5t-13.5 16t-9 15t-7 13.5l-4 9q-268 535 -365 740q-35 72 -35 91q0 37 70 41h7q18 0 32 -5.5t25.5 -19.5t17.5 -23.5t16.5 -31t14.5 -28.5q56 -104 190 -374.5t176 -364.5q22 -48 22 -66q0 -40 -62 -40z" />
    <glyph glyph-name="bracketright" unicode="]" horiz-adv-x="407" 
d="M118 -52q6 0 18 -1.5t17 -1.5q22 0 29 11.5t7 40.5v2q-1 136 -1 406.5t-1 405.5q0 8 -10.5 18.5t-18.5 11.5q-18 2 -28 2q-7 0 -21.5 -0.5t-21.5 -0.5q-21 0 -39 3q-12 2 -27 16t-16 26q-1 5 -1 17q0 27 12 79q1 4 12 8t20 4q90 2 134 2q80 0 120 -3q14 -1 32 -19.5
t18 -31.5q2 -102 2 -630v-463q0 -58 -56 -58l-85 1h-131q-59 0 -68.5 10.5t-11.5 73.5v8q0 63 57 63q2 0 6.5 -0.5t6.5 -0.5h13q6 0 17 0.5t16 0.5z" />
    <glyph glyph-name="asciicircum" unicode="^" horiz-adv-x="613" 
d="M389 471q-19 38 -97 203q-4 10 -16 10q-11 0 -15 -10q-56 -119 -94 -195l-4 -11q-4 -10 -7.5 -13.5t-11.5 -10t-21.5 -9.5t-32.5 -3q-15 0 -24 1q-54 5 -54 37q0 11 10 37q127 260 165 339q19 40 26 46q11 8 45 8h22q21 -1 29 -1.5t17 -5t10 -6t9.5 -14.5t14.5 -21
q8 -14 31 -56t33 -61l30 -57t33 -65t29 -63t30 -70q5 -13 5 -21q0 -16 -16 -21t-52 -5q-47 0 -62.5 7t-31.5 31z" />
    <glyph glyph-name="underscore" unicode="_" horiz-adv-x="968" 
d="M857 -180h-608q-28 0 -84 0.5t-84 0.5t-44.5 23t-16.5 54t16 52.5t44 21.5l393 2q129 0 385 -2q57 -1 57 -72q0 -3 -0.5 -10t-0.5 -10q-3 -60 -57 -60z" />
    <glyph glyph-name="grave" unicode="`" horiz-adv-x="297" 
d="M244 420q0 -30 -64 -30q-45 0 -61 19q-61 72 -108 133q-9 13 -9 26q0 5 2 9q9 18 114 27h2l2 1q22 0 35 -18q25 -33 53.5 -89t32.5 -71q1 -2 1 -7z" />
    <glyph glyph-name="a" unicode="a" horiz-adv-x="730" 
d="M165 314q0 -82 42.5 -128.5t116.5 -46.5q82 0 126.5 52t44.5 130q0 81 -48.5 126t-115.5 45q-68 0 -117 -47t-49 -131zM667 317q0 -18 4.5 -73.5t4.5 -86.5q0 -123 -64 -154q-14 -6 -32 -6q-22 0 -39 6q-19 6 -31.5 24.5t-14.5 39.5l-21 -15q-71 -67 -175 -67
q-28 0 -68 7q-147 27 -214 170q-37 78 -37 155q0 110 73 195.5t195 127.5q31 10 60 10q73 0 163 -65q4 -3 12.5 -11.5l11.5 -11.5q2 38 26 58t56 20q36 0 63 -24t27 -66v-233z" />
    <glyph glyph-name="b" unicode="b" horiz-adv-x="722" 
d="M347 498q-70 0 -115 -45.5t-50 -117.5q0 -3 -0.5 -9.5t-0.5 -9.5q0 -83 47 -130.5t114 -47.5h4q74 2 121.5 52t47.5 127q0 75 -49 128t-119 53zM206 34q-20 0 -65.5 -21.5t-58.5 -21.5q-25 0 -52 28q-42 45 -42 181q0 51 7 139.5t7 111.5v380q0 33 28 51.5t65 18.5
q66 0 82 -44q13 -34 13 -85q0 -24 -4 -73.5t-4 -72.5q0 -29 4 -49q8 4 28.5 15t28.5 15t24.5 12.5t27 11.5t25.5 7.5t29.5 6t29.5 1.5q19 0 42 -3q170 -24 239 -185q30 -73 30 -136q0 -57 -20 -107q-37 -89 -104 -161q-61 -67 -186 -67q-71 0 -120 25q-44 22 -54 22z" />
    <glyph glyph-name="c" unicode="c" horiz-adv-x="610" 
d="M37 144zM293 -16q-125 19 -214.5 107.5t-89.5 222.5q0 68 26 132t75 109q96 90 235 90q105 0 216 -49q28 -13 28 -42q0 -27 -19 -56q-22 -37 -50 -37q-15 0 -42 13.5t-40 15.5q-28 5 -53 5q-65 0 -115 -28t-72 -87q-11 -30 -11 -62q0 -53 28 -97.5t77 -65.5
q24 -11 51 -11t81 12t77 12q58 0 82 -50q7 -14 7 -29q0 -27 -28.5 -49t-70.5 -33.5t-82.5 -17.5t-72.5 -6q-17 0 -23 1z" />
    <glyph glyph-name="d" unicode="d" 
d="M178 317q0 -82 43.5 -129.5t118.5 -48.5h1q71 0 120 51t49 127t-49.5 128.5t-120.5 52.5q-74 0 -118 -49t-44 -132zM311 649q16 0 32 -2t27.5 -4t27 -9t22.5 -9.5t23.5 -13t20 -12.5t22 -15t20.5 -14q8 44 8 101q0 22 -1.5 66.5t-1.5 65.5q0 28 1 42q1 27 21.5 41
t50.5 14q29 0 55.5 -12t36.5 -30q10 -19 10 -53q0 -18 -3 -51t-3 -44v-653q0 -54 -55 -56q-2 0 -15 -0.5t-22 -0.5q-76 0 -76 35q0 25 -9 25q-7 0 -23 -14q-70 -61 -167 -61q-32 0 -62 6q-81 15 -139 61.5t-82 123.5q-28 91 -28 198q0 72 59.5 149t129.5 103q66 23 120 23z
" />
    <glyph glyph-name="e" unicode="e" horiz-adv-x="702" 
d="M176 280q-13 0 -13 -15q0 -17 13 -40q55 -86 157 -86q30 0 58.5 7t62 19.5t52.5 17.5q15 4 32 4q46 0 66 -45q7 -15 7 -30q0 -38 -45 -66q-95 -61 -215 -61q-37 0 -75 6q-194 29 -265 200q-26 66 -26 128q0 134 97 231t258 97q149 0 248 -113q28 -33 51 -102
q10 -25 10 -70q0 -2 -0.5 -6t-0.5 -5q0 -83 -218 -83q-53 0 -140.5 6t-108.5 6h-5zM464 412q3 0 8 1.5t6 1.5q-1 1 -2 6.5t-3 6.5q-47 73 -133 73q-49 0 -94 -22.5t-60 -47.5q-2 -3 -5 -16q24 -6 120 -6q39 0 97 1.5t66 1.5z" />
    <glyph glyph-name="f" unicode="f" horiz-adv-x="513" 
d="M201 665q0 -35 23 -35q6 0 30 2.5t38 2.5q69 0 69 -54q0 -37 -12 -49.5t-35 -12.5q-4 0 -11.5 0.5t-11.5 0.5q-14 0 -24 -3t-20 -12t-15.5 -29.5t-6.5 -52.5v-49q0 -34 1 -100t1 -99q0 -29 -2 -89q-2 -55 -16 -69q-8 -8 -21 -8q-27 -5 -55 -5q-80 0 -86 51t-6 150
q0 53 2 142.5t2 107.5v22q0 25 -10 32t-28 7h-8q-13 0 -20 2t-13.5 11.5t-6.5 28.5q0 5 -0.5 14.5t-0.5 13.5q0 27 5.5 35t24.5 8h18q21 0 30.5 11.5t9.5 50.5q0 143 96 195q61 32 124 32q26 0 53 -6q78 -15 126 -68q48 -50 48 -82q0 -17 -14 -28q-12 -18 -35.5 -33
t-41.5 -15q-15 0 -22 12q-13 24 -40.5 46.5t-56.5 22.5q-32 0 -54 -30q-28 -37 -28 -72z" />
    <glyph glyph-name="g" unicode="g" horiz-adv-x="721" 
d="M667 297q0 -27 1 -79t1 -79q0 -51 -3 -102q-11 -157 -88 -228q-98 -93 -248 -93q-111 0 -225 48q-59 23 -59 61q0 13 8 29q29 56 67 56q18 0 57.5 -16.5t59.5 -21.5q26 -6 58 -6q53 0 99.5 19t68.5 57q21 39 21 90q0 7 -5 12t-12 5q-4 0 -9 -3q-4 -3 -26.5 -19t-32.5 -20
q-41 -16 -94 -18q-2 0 -6 -0.5t-6 -0.5q-120 0 -196 67t-103 165q-14 51 -14 98q0 116 68 207t181 117q37 8 65 8q97 0 179 -70q2 -1 7.5 -1t6.5 2q9 27 34.5 44t54.5 17q35 0 60.5 -25.5t27.5 -58.5q3 -58 3 -145zM318 138h5q77 0 121.5 51t44.5 121q0 82 -46 134.5
t-118 54.5h-4q-65 0 -114 -49t-49 -122v-10q0 -81 44 -129.5t116 -50.5z" />
    <glyph glyph-name="h" unicode="h" horiz-adv-x="665" 
d="M121 1h-9q-6 0 -20 -0.5t-20 -0.5q-51 0 -66 45q-5 15 -5 37q0 34 -0.5 101t-0.5 100q0 27 0.5 83t0.5 83q0 35 -0.5 106t-0.5 107q0 27 0.5 80.5t0.5 80.5q0 37 18.5 53t69.5 16q5 0 16.5 0.5t16.5 0.5q23 0 40 -16t18 -39q2 -32 2 -119t1 -125q0 -7 6.5 -9.5t11.5 2.5
q67 63 167 63q56 0 104.5 -23.5t78.5 -67.5q38 -56 48.5 -122.5t10.5 -179.5q0 -31 -1 -95t-1 -96q0 -39 -25.5 -53.5t-73.5 -14.5q-17 0 -23 4q-26 1 -41 20.5t-16 39.5q-3 49 -3 147q0 27 0.5 81t0.5 80q0 58 -36 91.5t-84 33.5q-41 0 -72 -26t-36 -75q-8 -79 -17 -327
q-3 -66 -61 -66z" />
    <glyph glyph-name="i" unicode="i" horiz-adv-x="260" 
d="M24 316v233q0 40 25.5 67t61.5 27t63.5 -26.5t29.5 -60.5q2 -80 2 -241v-237q0 -46 -22 -61.5t-85 -16.5h-1q-74 0 -74 73q0 17 0.5 50t0.5 50q0 24 -0.5 71.5t-0.5 71.5zM113 699q-49 0 -80.5 29.5t-31.5 75.5q0 37 33 70t71 33h6q45 -3 78 -29t33 -75q0 -47 -30 -75.5
t-79 -28.5z" />
    <glyph glyph-name="j" unicode="j" horiz-adv-x="480" 
d="M217 801q0 44 28 75t68 31h6q45 -3 78 -29.5t33 -75.5q0 -48 -32 -75.5t-75 -27.5t-74.5 27t-31.5 75zM176 -150h9q32 0 42 47.5t10 183.5q0 37 -1.5 170.5t-1.5 232.5v79q2 32 28.5 56t60.5 24q36 0 62 -27t26 -67q0 -57 0.5 -170t0.5 -170q0 -124 -3 -248
q-3 -80 -26 -135.5t-89 -85.5q-53 -24 -115 -24q-69 0 -125 32t-77 97q-4 13 -4 29q0 34 26 53.5t60 19.5q30 0 51.5 -16t21.5 -45q0 -21 11 -28.5t33 -7.5z" />
    <glyph glyph-name="k" unicode="k" horiz-adv-x="564" 
d="M2 485v143q0 143 1 214q1 51 83 51q26 0 54 -6q27 -5 30 -73q1 -55 2.5 -156.5t2.5 -173.5t1 -74q1 1 35 43.5t77.5 95t66.5 74.5q42 40 69 40q23 0 60 -30q17 -14 17 -37q0 -28 -24 -62q-25 -34 -76 -95.5t-68 -83.5q-2 -2 -2 -5q0 -13 12 -32q5 -7 78 -109t105 -151
q8 -12 8 -19q0 -14 -11 -24.5t-29 -14.5q-12 -3 -44 -3q-72 0 -92 32q-6 9 -82 107t-90 118q-6 9 -10 9t-4 -15v-66q0 -57 -3 -126q0 -22 -4.5 -33.5t-7.5 -13.5t-18 -9q-14 -6 -51 -6q-39 0 -54 6q-18 7 -23 15.5t-7 37.5q-3 103 -3 205q0 31 0.5 113.5t0.5 113.5z" />
    <glyph glyph-name="l" unicode="l" horiz-adv-x="233" 
d="M182 821v-769q0 -20 -22.5 -37.5t-62.5 -17.5q-37 0 -62 15t-26 45q-8 358 -8 668v96q0 32 27 50t63 18q37 0 64 -18t27 -50z" />
    <glyph glyph-name="m" unicode="m" horiz-adv-x="1030" 
d="M3 310v13q0 22 -0.5 65.5t-0.5 65.5q0 56 3 111q2 53 43 66q30 5 47 5q27 0 43.5 -7.5t30 -23t15.5 -17.5q8 -6 15 1q55 58 149 58q99 0 176 -86q13 -13 21 1q60 84 194 88q1 0 3 0.5t3 0.5q75 0 136 -46.5t71 -117.5q23 -167 27 -408q-1 -41 -27.5 -62t-65.5 -21
q-35 0 -63 14q-22 17 -22 46v52q0 22 0.5 66.5t0.5 66.5q0 76 -4 136v4q0 51 -24.5 83.5t-48.5 37.5q-12 3 -25 3q-37 0 -69 -19.5t-41 -52.5q-11 -38 -13.5 -212.5t-7.5 -191.5q-10 -33 -68 -33q-13 0 -36 2t-25 2q-12 1 -24 17t-13 37q-1 28 -1 85v107q0 87 -3 130
q-3 47 -33 86t-76 39q-31 0 -57 -18t-35 -49q-12 -41 -16.5 -90t-4.5 -120t-1 -92q0 -11 -0.5 -30t-1 -26t-1.5 -20.5t-3.5 -17.5t-6 -12.5t-9.5 -11t-13.5 -6.5t-19 -5t-25.5 -2t-33 -1q-55 0 -58 59q-3 60 -3 121q0 21 0.5 64.5t0.5 65.5z" />
    <glyph glyph-name="n" unicode="n" horiz-adv-x="669" 
d="M3 315q0 19 -1 57.5t-1 57.5q0 54 3 110q2 60 27 78q16 14 74 14q73 0 76 -34q1 -3 3 -11.5t3 -12.5q5 17 48.5 41.5t108.5 33.5q20 2 32 2q103 0 159 -68q48 -56 63 -130t15 -191q0 -34 -1.5 -100t-1.5 -99q0 -62 -57 -62h-7q-8 0 -23 -1t-23 -1q-35 0 -51 18
q-13 15 -15 37q-6 88 -7 202.5t-3 155.5q-2 39 -30.5 63.5t-65.5 24.5q-34 0 -63 -21q-77 -56 -80 -157q-2 -74 -2 -110q0 -25 0.5 -76t0.5 -76q0 -38 -22 -49.5t-70 -11.5q-56 0 -71 22.5t-18 99.5q-1 25 -1 74q0 20 0.5 60t0.5 60z" />
    <glyph glyph-name="o" unicode="o" horiz-adv-x="701" 
d="M334 653q128 -6 226.5 -98t98.5 -234v-12q-4 -127 -100 -223t-246 -96q-3 0 -9.5 0.5t-10.5 0.5q-124 6 -221 96t-97 226q0 1 0.5 4t0.5 5q0 138 98 234.5t242 96.5h18zM315 144q78 0 125.5 53.5t47.5 124.5t-47.5 122.5t-114.5 56.5q-2 0 -6.5 0.5t-6.5 0.5
q-70 0 -118.5 -56t-50.5 -119v-8q0 -68 48.5 -122t108.5 -54q9 0 13 1h1z" />
    <glyph glyph-name="p" unicode="p" horiz-adv-x="729" 
d="M7 586q2 21 32 41t64 20q37 0 62 -29q4 -5 7.5 -13.5t7 -13t9.5 -4.5q10 0 25 11q71 55 159 55q35 0 74 -9q156 -37 215 -183q24 -61 24 -132q0 -120 -52 -202t-145 -115q-45 -15 -105 -15q-38 0 -67 4q-17 2 -58 28t-60 26q-5 0 -9 -101.5t-4 -134.5q-1 -38 -15.5 -60
t-52.5 -25q-9 -1 -26 -1q-30 0 -49 5.5t-27.5 18.5t-11 25.5t-2.5 34.5q0 11 -0.5 59.5t-0.5 85.5q0 424 6 624zM349 144h11q75 0 112 53.5t41 124.5v10q0 67 -44.5 116t-104.5 53h-16q-78 0 -122 -50t-44 -121v-5q2 -87 45 -134t122 -47z" />
    <glyph glyph-name="q" unicode="q" horiz-adv-x="758" 
d="M672 586q5 -167 5 -624v-145q0 -22 -2.5 -34.5t-11 -25.5t-27.5 -18.5t-49 -5.5q-18 0 -27 1q-38 3 -52.5 25t-15.5 60q0 33 -4 134.5t-9 101.5q-19 0 -60 -26t-58 -28q-29 -4 -67 -4q-61 0 -106 15q-93 33 -144.5 115t-51.5 202q0 69 25 132q59 146 213 183q39 9 75 9
q89 0 160 -55q15 -11 23 -11q6 0 10 4.5t8.5 13.5t7.5 13q25 29 61 29q34 0 64.5 -20t32.5 -41zM329 144q79 0 122.5 47t45.5 134v5q0 71 -44.5 121t-122.5 50h-16q-60 -4 -104 -53t-44 -116v-10q4 -72 41 -125t111 -53h11z" />
    <glyph glyph-name="r" unicode="r" horiz-adv-x="406" 
d="M340 651h1q21 0 31 -22.5t10 -35.5v-21q0 -38 -8.5 -53t-44.5 -29q-14 -6 -38.5 -13t-39 -12.5t-31 -16t-25 -29.5t-10.5 -48q-2 -36 -7.5 -146t-9.5 -169q-3 -34 -26 -44q-33 -9 -59 -9q-28 0 -49 8q-17 6 -30 31.5t-14 48.5q-3 115 -3 231q0 73 2 223q1 42 32 73.5
t69 31.5q44 0 70 -39q4 -5 6 -12.5t4 -18t3 -14.5q59 87 146 87q7 0 21 -2z" />
    <glyph glyph-name="s" unicode="s" horiz-adv-x="501" 
d="M13 85q-28 32 -28 66q0 31 22.5 53t51.5 22q33 0 54 -28q17 -24 49.5 -44.5t64.5 -20.5q48 0 76 51q3 6 3 12q0 11 -7 21t-14 13q-23 11 -86 34t-95 40q-104 56 -104 156q0 3 0.5 9t0.5 9q3 40 37.5 86t73.5 63q67 27 124 27q82 0 149 -56q32 -25 50 -75q1 -2 1 -7
q0 -12 -6.5 -26.5t-15.5 -19.5q-19 -16 -42 -16q-26 0 -74 34.5t-72 34.5t-46 -22q-15 -17 -15 -36q0 -14 5 -18q26 -29 64 -48q19 -10 85.5 -40t99.5 -51q50 -34 50 -112q0 -47 -20.5 -91t-57.5 -69q-1 0 -12 -6t-14 -7t-14 -6t-16 -7t-16 -5.5t-19 -5t-19 -3t-22 -1.5
q-95 4 -151.5 22t-94.5 68z" />
    <glyph glyph-name="t" unicode="t" horiz-adv-x="452" 
d="M67 501q-8 4 -23 4q-5 0 -16.5 -0.5t-16.5 -0.5q-28 0 -34 12q-7 18 -7 32q0 30 21.5 54.5t53.5 28.5q38 6 43 58q0 2 1 17t1.5 20.5t2.5 18.5t4.5 20t6.5 16.5t10 15.5t13 10q20 11 59 11q22 0 35 -6q9 -1 14.5 -6.5t8 -15.5t3.5 -18t1.5 -20.5t0.5 -15.5
q5 -71 17 -82.5t81 -13.5h2q16 -1 26.5 -3t19 -3t13 -5.5t8 -6t5 -9.5t2 -10.5t1 -15.5t0.5 -18q-1 -41 -27.5 -55t-72.5 -14q-9 0 -27 0.5t-26 0.5q-14 0 -17.5 -5.5t-3.5 -33.5q0 -7 0.5 -38.5t0.5 -57.5v-97q0 -58 2 -87q3 -36 30 -36h3q83 16 87 16q26 0 40 -16
q1 -1 6 -6.5t6 -8t3 -10.5t2 -20v-5q-3 -10 -6 -23.5t-4.5 -18t-4.5 -12t-9 -11t-14.5 -8.5t-23.5 -12q-50 -21 -100 -21q-59 0 -106.5 27.5t-71.5 83.5q-14 33 -14 180q0 19 0.5 55t0.5 53q0 107 -10 112z" />
    <glyph glyph-name="u" unicode="u" horiz-adv-x="642" 
d="M590 583v-390q0 -91 -1 -136q0 -22 -19 -37q-42 -21 -69 -21q-28 0 -51 22t-32 22q-8 0 -16 -5q-72 -48 -178 -48h-19q-65 2 -127.5 52t-66.5 110q-9 133 -11 451q0 26 38 34q30 6 49 6q23 0 37 -7q15 -8 28 -29.5t14 -39.5q1 -28 1 -85v-104q0 -39 0.5 -60t4 -54.5
t11.5 -52t21.5 -38t35.5 -28.5t52 -9q42 0 73.5 20t34.5 57q13 173 13 303v50q0 16 2.5 27t10.5 24t27 20t49 8q34 -1 56 -15.5t27 -26.5t5 -20z" />
    <glyph glyph-name="v" unicode="v" horiz-adv-x="674" 
d="M332 -1q-58 0 -86.5 26.5t-48.5 87.5q-96 224 -183 458q-4 9 -4 22q0 21 16 34t42 14q4 0 12 0.5t11 0.5q60 0 79 -18t42 -87q39 -123 120 -307q25 58 69 178.5t69 179.5q19 43 49 44h28q45 0 69.5 -11t24.5 -42q0 -23 -11 -50q-56 -148 -166 -411q-25 -57 -52.5 -83.5
t-79.5 -35.5z" />
    <glyph glyph-name="w" unicode="w" horiz-adv-x="1006" 
d="M397 574q37 43 80 43q52 0 73 -57q17 -42 33 -89.5t35 -107t29 -90.5q17 32 33.5 75t25.5 73.5t24.5 84.5t21.5 75q8 28 37.5 46t66.5 18q22 0 46 -8q36 -13 36 -43q0 -19 -14 -55q-19 -54 -53.5 -155t-63.5 -182.5t-58 -153.5q-18 -48 -74 -48q-18 0 -40 5q-20 5 -40 22
t-27 36q-52 127 -93 284q-19 -31 -32.5 -69.5t-27.5 -89.5t-22 -74q-1 -4 -4.5 -15.5t-5 -15.5t-5 -14t-6 -13.5t-6.5 -11.5t-7.5 -11.5l-9.5 -9.5t-12 -9t-13.5 -6t-16.5 -5q-13 -3 -25 -3q-78 0 -111 108q-24 79 -83.5 234.5t-83.5 236.5v4q0 12 11.5 29.5t22.5 23.5
q25 13 51 13q38 0 68.5 -27t40.5 -69q10 -44 26 -92t38 -108t32 -91q7 22 23 93.5t35 130t45 88.5z" />
    <glyph glyph-name="x" unicode="x" horiz-adv-x="674" 
d="M654 45q0 -18 -17 -30.5t-43 -12.5q-3 0 -12 0.5t-13 0.5q0 -1 -12 -3t-15 -2q3 1 25 5q-12 -2 -18 -2q-11 0 -20.5 2t-19.5 8t-16.5 9.5t-16 14t-13.5 14t-15 16.5t-13 16q-61 68 -88 107q-16 23 -28 23q-9 0 -26 -20q-17 -22 -56.5 -68.5t-59.5 -72.5
q-18 -23 -52.5 -37t-68.5 -14q-29 0 -52 14t-23 35q0 14 16 35q32 40 97 119t96 119q4 5 3.5 14.5t-4.5 14.5q-13 16 -55.5 63t-76 86t-38.5 52q-12 28 -12 39q0 31 47 50q52 18 69 18q8 0 14 -1.5t13 -6.5t12 -9.5t13 -15t14 -18t17.5 -24t20.5 -28.5q40 -55 80 -91
q5 -3 9 -3q5 0 11.5 4t10.5 7.5t11.5 11.5t9.5 10q14 14 61.5 63t74.5 73q1 1 13 11.5t20.5 14t19.5 3.5q22 0 53 -23q9 -4 19.5 -17.5t10.5 -29.5q0 -14 -13 -30q-125 -150 -162 -200q-6 -7 -6 -21q0 -24 10 -37q33 -43 96 -119.5t86 -105.5q12 -15 12 -31z" />
    <glyph glyph-name="y" unicode="y" horiz-adv-x="666" 
d="M190 -270q-64 0 -64 51q0 23 18 82q7 22 33 83t33 96q1 5 1 15q0 31 -18 74t-46.5 94t-33.5 62q-97 211 -117 264q-10 28 -10 44q0 25 21 35.5t66 10.5q51 0 76.5 -20.5t43.5 -72.5q51 -149 105 -260q4 -7 12 -7t13 8q7 12 43 110t76.5 172t76.5 74q44 0 76 -22.5
t32 -44.5q0 -56 -29 -127t-77 -157t-62 -118q-147 -339 -181 -409q-8 -17 -33.5 -27t-54.5 -10z" />
    <glyph glyph-name="z" unicode="z" horiz-adv-x="656" 
d="M549 2h-259q-21 0 -61.5 -0.5t-61.5 -0.5q-53 0 -104 3q-35 1 -57 22.5t-22 51.5q0 32 25 60q44 50 147 156.5t178 192.5q-2 -2 -49 -2q-31 0 -110.5 1t-106.5 1q-65 0 -68 68v9q0 76 67 77q70 1 208 1q87 0 259 -2q43 0 51 -28q7 -24 7 -47q0 -27 -9 -39
q-43 -57 -96.5 -115.5t-127 -132.5t-105.5 -108q-4 -4 -8 -12q49 -4 111 -4q31 0 94.5 1t93.5 1h5q70 0 70 -68q0 -46 -16.5 -66t-54.5 -20z" />
    <glyph glyph-name="braceleft" unicode="{" horiz-adv-x="446" 
d="M261 1080h16q94 0 94 -63q0 -33 -14.5 -43.5t-41.5 -10.5q-4 0 -12 0.5t-13 0.5q-34 0 -52 -11q-39 -22 -39 -71q0 -28 10 -66q8 -29 29 -93t29 -99q4 -16 4 -35q0 -61 -48 -103q3 0 13.5 -22.5t20 -59t9.5 -67.5q0 -25 -5 -40q-43 -139 -59 -229q-2 -10 -2 -14
q0 -29 21 -45.5t55 -16.5q98 0 98 -54q0 -15 -7 -35q-3 -8 -13 -14.5t-18 -6.5q-27 -1 -80 -1q-47 0 -71 1q-40 1 -84 39.5t-58 79.5q-10 33 -10 66q0 54 36.5 153.5t41.5 144.5q0 1 0.5 2t0.5 2q0 18 -17 30.5t-38 19t-38 22t-17 38.5v1q0 27 11 38.5t39 14.5q60 7 60 50
q0 16 -7 34q-48 131 -72 251q-3 12 -3 25q0 52 33.5 101t86.5 64q24 22 111 22z" />
    <glyph glyph-name="bar" unicode="|" horiz-adv-x="218" 
d="M13 -21v792q0 218 2 328q1 25 22 39t51 14q32 0 55.5 -17.5t23.5 -47.5v-1105q0 -54 -54 -54h-1q-74 1 -84 6q-15 9 -15 45z" />
    <glyph glyph-name="braceright" unicode="}" horiz-adv-x="439" 
d="M189 897q0 33 -32 49t-76 16h-7q-13 0 -19.5 0.5t-15.5 4t-14 11.5t-8 21q-2 12 -2 19q0 52 99 52h17q0 3 35 3q-1 0 -2.5 -0.5t-5 -1t-6.5 -0.5h12q120 0 174 -101q19 -38 19 -82q0 -46 -19 -106l-32 -78q-32 -79 -32 -115q0 -27 14 -42q12 -13 31 -18.5t33 -5.5t25 -12
t11 -39t-11 -40.5t-38 -13.5q-57 0 -57 -72q0 -37 13.5 -87t34 -105t21.5 -58q5 -17 5 -34q0 -44 -24.5 -90.5t-58.5 -66.5q-28 -16 -58 -21.5t-76 -5.5t-61 -1h-10q-27 0 -37.5 13.5t-12.5 45.5v6q0 30 13 39t41 9q2 0 6 -0.5t6 -0.5h4q52 0 79 22t27 62q0 22 -13 59
q-40 108 -60 199q-3 11 -3 34q0 59 49 98h-1q-5 0 -14.5 26.5t-17.5 66.5t-8 70q0 18 3 30q3 13 27 97.5t32 129.5q1 5 1 14z" />
    <glyph glyph-name="asciitilde" unicode="~" horiz-adv-x="690" 
d="M308 352q-2 1 -15 9t-17 10t-14.5 8t-16.5 8t-15.5 5.5t-17.5 4.5t-16 1q-28 0 -53 -14q-52 -27 -66 -27q-4 0 -8 1t-8.5 5t-7 6.5l-9 9l-10.5 10.5q-26 26 -26 49q0 16 17 35q69 94 146 94q16 0 31 -3q57 -13 155 -76q29 -17 65 -17q23 0 64 9.5t57 9.5q41 0 59 -45
q13 -32 13 -53q0 -33 -27.5 -51t-85.5 -28q-18 -3 -40 -3q-95 0 -154 42z" />
    <glyph glyph-name="nonbreakingspace" unicode="&#xa0;" horiz-adv-x="450" 
 />
  </font>
</defs>
</svg>
